<svg width="131" height="45" fill="none" xmlns="http://www.w3.org/2000/svg"><path d="M24.232 10.917 18.107 0l-6.124 10.917 6.124-3.994 6.125 3.994Z" fill="#1D1C1A"/><path d="m24.232 10.917-6.125 3.995-6.124-3.995 6.124 10.918 6.125-10.918Z" fill="#1D1C1A"/><path d="M20.5 10.917 18.107 12.5 15.5 10.917 18.107 9.5l2.393 1.417Z" fill="#1D1C1A"/><path d="m0 10.917 18 34.084 18-34.084h-6.634L18 32.471 6.634 10.917H0ZM59.296 33 52 10.6h5.6l4.96 16.48 4.96-16.48h5.6L65.824 33h-6.528Zm18.85-.448c-.597.598-1.311.896-2.144.896-.831 0-1.546-.298-2.143-.896-.598-.597-.896-1.312-.896-2.144 0-.832.298-1.546.896-2.144.597-.597 1.312-.896 2.144-.896.832 0 1.546.299 2.144.896.597.598.895 1.312.895 2.144 0 .832-.298 1.547-.895 2.144ZM95.225 10.6v4.928h-5.76V33h-5.12V15.528h-5.76V10.6h16.64Zm4.718 21.952c-.598.598-1.313.896-2.144.896-.832 0-1.547-.298-2.145-.896-.597-.597-.896-1.312-.896-2.144 0-.832.3-1.546.896-2.144.598-.597 1.313-.896 2.144-.896.832 0 1.547.299 2.145.896.597.598.896 1.312.896 2.144 0 .832-.299 1.547-.896 2.144Zm12.752.896c-2.283 0-4.192-.49-5.728-1.472a8.214 8.214 0 0 1-3.232-4.064l4.416-2.56c.896 2.07 2.464 3.104 4.704 3.104 2.026 0 3.04-.608 3.04-1.824 0-.661-.331-1.173-.992-1.536-.64-.384-1.856-.821-3.648-1.312a16.421 16.421 0 0 1-2.464-.864 11.173 11.173 0 0 1-2.08-1.248 5.402 5.402 0 0 1-1.536-1.984c-.342-.789-.512-1.696-.512-2.72 0-2.069.736-3.722 2.208-4.96 1.493-1.237 3.264-1.856 5.312-1.856 1.834 0 3.456.438 4.864 1.312 1.408.854 2.517 2.102 3.328 3.744l-4.32 2.528c-.406-.853-.907-1.493-1.504-1.92-.598-.448-1.387-.672-2.368-.672-.768 0-1.366.171-1.792.512-.406.32-.608.715-.608 1.184 0 .555.256 1.035.768 1.44.533.406 1.621.854 3.264 1.344.896.278 1.589.502 2.08.672.49.171 1.109.459 1.856.864.768.384 1.344.8 1.728 1.248.405.427.757 1.003 1.056 1.728.32.704.48 1.515.48 2.432 0 2.134-.768 3.819-2.304 5.056-1.536 1.216-3.542 1.824-6.016 1.824Zm15.918-.896c-.598.598-1.312.896-2.144.896-.832 0-1.547-.298-2.144-.896-.598-.597-.896-1.312-.896-2.144 0-.832.298-1.546.896-2.144.597-.597 1.312-.896 2.144-.896.832 0 1.546.299 2.144.896.597.598.896 1.312.896 2.144 0 .832-.299 1.547-.896 2.144Z" fill="#1D1C1A"/></svg>
